<svg width="255" height="55" viewBox="0 0 255 55" fill="none" xmlns="http://www.w3.org/2000/svg">
<g clip-path="url(#clip0_39_1024)">
<path d="M79.3531 31.7276L70.9764 18.3022H67.8514V41.2117H72.2772V27.5319L77.8094 36.5183H80.8708L86.4029 27.5768V41.2117H90.8287V18.3022H87.7038L79.3531 31.7276Z" fill="white"/>
<path d="M101.654 35.4554L98.0878 25.4734H93.4004L99.3886 39.8569L95.6133 47.829H100.17L103.033 41.3427L110.064 25.4734H105.377L101.654 35.4554Z" fill="white"/>
<path d="M130.488 31.7276L122.108 18.3022H118.983V41.2117H123.409V27.5319L128.941 36.5183H132.002L137.535 27.5768V41.2117H141.96V18.3022H138.835L130.488 31.7276Z" fill="white"/>
<path d="M150.49 25.4734H146.162V41.2155H150.49V25.4734Z" fill="white"/>
<path d="M148.341 18.04C147.646 18.04 147.07 18.2796 146.618 18.7587C146.162 19.2377 145.934 19.8141 145.934 20.4878C145.934 21.1615 146.162 21.7641 146.618 22.2319C147.074 22.6998 147.649 22.9318 148.341 22.9318C149.032 22.9318 149.638 22.6998 150.083 22.2319C150.528 21.7641 150.752 21.184 150.752 20.4878C150.752 19.7917 150.528 19.2377 150.083 18.7587C149.638 18.2796 149.059 18.04 148.341 18.04Z" fill="white"/>
<path d="M166.194 26.0086C165.293 25.4322 164.257 25.144 163.084 25.144C161.91 25.144 160.822 25.406 159.876 25.9263C159.364 26.207 158.916 26.5513 158.527 26.9518V25.4697H154.262V41.2118H158.527V32.1842C158.527 31.5779 158.662 31.0277 158.934 30.5374C159.207 30.0471 159.581 29.6728 160.056 29.4145C160.534 29.1525 161.076 29.0216 161.682 29.0216C162.594 29.0216 163.341 29.3135 163.928 29.9011C164.515 30.4887 164.807 31.2485 164.807 32.1842V41.2118H169.102V31.2073C169.102 30.1631 168.84 29.1825 168.32 28.258C167.801 27.3336 167.087 26.585 166.19 26.0086H166.194Z" fill="white"/>
<path d="M183.624 26.8282C183.216 26.4465 182.753 26.1171 182.226 25.8476C181.314 25.3798 180.293 25.1477 179.164 25.1477C177.71 25.1477 176.413 25.507 175.273 26.2219C174.133 26.9405 173.228 27.9174 172.556 29.1562C171.883 30.3951 171.546 31.7949 171.546 33.3594C171.546 34.9238 171.883 36.2937 172.556 37.5326C173.228 38.7714 174.133 39.7483 175.273 40.4669C176.413 41.1855 177.71 41.5411 179.164 41.5411C180.316 41.5411 181.343 41.309 182.256 40.8412C182.786 40.5679 183.25 40.2348 183.654 39.8456V41.2192H187.948V17.6584H183.62V26.8357L183.624 26.8282ZM181.994 37.0423C181.385 37.4128 180.693 37.5962 179.912 37.5962C179.131 37.5962 178.469 37.4165 177.86 37.0572C177.25 36.6979 176.779 36.2001 176.443 35.5564C176.107 34.9164 175.938 34.1715 175.938 33.3257C175.938 32.4798 176.107 31.7687 176.443 31.1249C176.779 30.4849 177.247 29.9834 177.841 29.6241C178.439 29.2648 179.138 29.0851 179.942 29.0851C180.745 29.0851 181.411 29.2685 182.009 29.6391C182.607 30.0096 183.07 30.5074 183.407 31.1399C183.743 31.7687 183.911 32.5098 183.911 33.3556C183.911 34.2015 183.743 34.9089 183.407 35.5377C183.07 36.1664 182.599 36.668 181.99 37.0385L181.994 37.0423Z" fill="white"/>
<path d="M212.817 27.4271H202.889V18.3022H198.463V41.2117H202.889V31.3383H212.817V41.2117H217.243V18.3022H212.817V27.4271Z" fill="white"/>
<path d="M231.01 34.5009C231.01 35.4777 230.759 36.2413 230.262 36.784C229.761 37.3267 229.07 37.5999 228.18 37.5999C227.593 37.5999 227.085 37.4801 226.651 37.2406C226.218 37.001 225.892 36.6492 225.676 36.1814C225.459 35.7135 225.35 35.1559 225.35 34.5046V25.4771H221.056V34.6019C221.056 35.9718 221.358 37.1769 221.968 38.2174C222.573 39.2617 223.422 40.0701 224.506 40.6465C225.59 41.2229 226.816 41.5111 228.184 41.5111C229.552 41.5111 230.771 41.2229 231.847 40.6465C232.92 40.0701 233.761 39.2617 234.37 38.2174C234.976 37.1732 235.282 35.968 235.282 34.6019V25.4771H231.017V34.5046L231.01 34.5009Z" fill="white"/>
<path d="M254.024 29.1562C253.374 27.9173 252.466 26.9404 251.307 26.2218C250.144 25.5032 248.84 25.1476 247.386 25.1476C246.279 25.1476 245.266 25.3797 244.343 25.8475C243.809 26.117 243.338 26.4464 242.926 26.8319V17.6509H238.661V41.2116H242.893V39.8156C243.308 40.2198 243.782 40.5604 244.324 40.8373C245.236 41.3052 246.257 41.5372 247.386 41.5372C248.84 41.5372 250.141 41.1779 251.292 40.4631C252.443 39.7444 253.348 38.7676 254.009 37.5287C254.671 36.2899 255.004 34.9013 255.004 33.3555C255.004 31.8098 254.679 30.3913 254.028 29.1524L254.024 29.1562ZM250.1 35.5413C249.763 36.1701 249.303 36.6716 248.717 37.0422C248.13 37.4127 247.446 37.5961 246.664 37.5961C245.883 37.5961 245.188 37.4127 244.582 37.0422C243.973 36.6716 243.51 36.1738 243.184 35.5413C242.859 34.9125 242.695 34.1827 242.695 33.3593C242.695 32.5359 242.859 31.7723 243.184 31.1436C243.51 30.5148 243.969 30.0132 244.567 29.6427C245.165 29.2722 245.853 29.0888 246.634 29.0888C247.416 29.0888 248.103 29.2722 248.702 29.6427C249.3 30.0132 249.763 30.5185 250.1 31.1585C250.436 31.7985 250.604 32.5209 250.604 33.3256C250.604 34.1715 250.436 34.9125 250.1 35.5413Z" fill="white"/>
<path d="M27.474 46.2046C17.1684 46.2046 8.78418 37.8095 8.78418 27.4907C8.78418 17.1719 17.1684 8.77686 27.474 8.77686C37.7795 8.77686 46.1638 17.1719 46.1638 27.4907C46.1638 37.8095 37.7795 46.2046 27.474 46.2046ZM27.474 12.5196C19.228 12.5196 12.5221 19.2342 12.5221 27.4907C12.5221 35.7473 19.228 42.4618 27.474 42.4618C35.7199 42.4618 42.4258 35.7473 42.4258 27.4907C42.4258 19.2342 35.7199 12.5196 27.474 12.5196Z" fill="#F28400"/>
<path d="M27.474 38.9061C21.1868 38.9061 16.0732 33.786 16.0732 27.4906C16.0732 21.1953 21.1868 16.0752 27.474 16.0752C33.7613 16.0752 38.8748 21.1953 38.8748 27.4906C38.8748 33.786 33.7613 38.9061 27.474 38.9061ZM27.474 19.818C23.2501 19.818 19.8112 23.2613 19.8112 27.4906C19.8112 31.72 23.2501 35.1633 27.474 35.1633C31.6979 35.1633 35.1368 31.72 35.1368 27.4906C35.1368 23.2613 31.6979 19.818 27.474 19.818Z" fill="#F46800"/>
<path d="M27.474 55C26.4386 55 25.3957 54.9401 24.3715 54.8278L25.1228 48.132C26.4199 48.278 27.7544 48.3004 29.044 48.2069L29.5448 54.9251C28.8608 54.9775 28.1655 55.0037 27.474 55.0037V55ZM32.5427 54.5322L31.3092 47.9112C32.5913 47.6717 33.8547 47.3086 35.0658 46.8295L37.5291 53.0987C35.9218 53.7312 34.2435 54.214 32.5464 54.5322H32.5427ZM21.3849 54.3226C19.6991 53.9408 18.0431 53.3944 16.4582 52.7019L19.1571 46.5301C20.3495 47.0541 21.6017 47.4658 22.8688 47.754L21.3849 54.3226ZM40.2803 51.8336L37.1404 45.8751C38.2917 45.2651 39.3944 44.5427 40.4148 43.7268L44.6163 48.9891C43.2669 50.0708 41.8091 51.0252 40.284 51.8336H40.2803ZM13.7557 51.3283C12.2605 50.4638 10.8401 49.4532 9.5318 48.3229L13.9276 43.2215C14.9182 44.0749 15.991 44.8421 17.1199 45.4934L13.7557 51.3283ZM46.8703 46.9718L42.1194 42.1997C43.0426 41.2753 43.8874 40.261 44.62 39.1831L50.1784 42.982C49.2065 44.408 48.0926 45.7516 46.8703 46.9718ZM7.35631 46.2232C6.17885 44.9581 5.11727 43.5733 4.20147 42.1099L9.89812 38.5243C10.5934 39.6284 11.3933 40.6764 12.2829 41.6346L7.35631 46.2232ZM51.7446 40.392L45.805 37.2293C46.418 36.0766 46.9226 34.8602 47.3039 33.6138L53.7332 35.5937C53.2248 37.248 52.5557 38.8612 51.7446 40.392ZM2.73245 39.4638C1.97738 37.9068 1.37183 36.2674 0.927014 34.5944L7.42733 32.8578C7.76375 34.1191 8.21978 35.3505 8.78795 36.5257L2.73245 39.46V39.4638ZM54.4658 32.6519L47.8571 31.3944C48.1001 30.1181 48.2234 28.8044 48.2234 27.4906V27.4158H54.9518V27.4644C54.9518 29.2235 54.791 30.9602 54.4696 32.6519H54.4658ZM0.310251 31.6264C0.104663 30.264 0 28.8755 0 27.4906C0 27.1426 0.00747592 26.7982 0.0186898 26.4539L6.74328 26.7009C6.73207 26.9629 6.72833 27.2249 6.72833 27.4906C6.72833 28.5386 6.80683 29.5941 6.96008 30.6196L0.306513 31.6264H0.310251ZM48.0889 25.1364C47.9431 23.8377 47.674 22.5464 47.2852 21.3038L53.7108 19.3015C54.2229 20.952 54.5817 22.6587 54.7761 24.3804L48.0889 25.1327V25.1364ZM6.95261 24.4216L0.295299 23.4372C0.54948 21.723 0.964394 20.0276 1.5363 18.3957L7.8871 20.6227C7.45723 21.8503 7.14324 23.1303 6.95261 24.4216ZM46.489 19.1667C45.9657 17.9728 45.3265 16.82 44.5864 15.7421L50.1335 11.9282C51.1129 13.3542 51.9614 14.8813 52.6529 16.4644L46.489 19.1667ZM8.76178 18.508L2.69507 15.5924C3.44266 14.0354 4.34351 12.5383 5.37145 11.146L10.7803 15.1507C10.0028 16.2024 9.32248 17.3328 8.76178 18.508ZM43.1921 13.9306C42.3399 12.9388 41.3867 12.0255 40.3662 11.2133L44.549 5.93603C45.8984 7.01021 47.1581 8.21912 48.2832 9.52909L43.1884 13.9306H43.1921ZM12.2381 13.3916L7.30024 8.81797C8.47396 7.54917 9.77103 6.38516 11.1578 5.35965L15.1574 10.7754C14.1071 11.5539 13.1277 12.4335 12.2381 13.3916ZM38.501 9.8884C37.3946 9.19224 36.2208 8.60088 35.0098 8.12555L37.4544 1.84893C39.0617 2.47771 40.6204 3.2637 42.0857 4.18442L38.5047 9.8884H38.501ZM17.0675 9.51786L13.6847 3.69411C15.1799 2.82205 16.7648 2.09221 18.3945 1.52331L20.6186 7.88227C19.3888 8.31269 18.1964 8.86288 17.0675 9.52161V9.51786ZM32.838 7.41817C31.582 7.08132 30.285 6.86424 28.9804 6.77067L29.4589 0.0523988C31.1858 0.17591 32.9053 0.464103 34.5724 0.909493L32.838 7.41817ZM22.809 7.24226L21.3026 0.677441C22.981 0.291936 24.7079 0.0636271 26.4386 0L26.689 6.73324C25.3808 6.7819 24.0762 6.95407 22.809 7.246V7.24226Z" fill="#F2A100"/>
</g>
<defs>
<clipPath id="clip0_39_1024">
<rect width="255" height="55" fill="white"/>
</clipPath>
</defs>
</svg>
