<svg width="68" height="68" viewBox="0 0 68 68" fill="none" xmlns="http://www.w3.org/2000/svg">
<circle cx="34" cy="34" r="34" fill="#FBA700"/>
<g clip-path="url(#clip0_496_256)">
<path d="M22.5671 31.0908C23.2698 31.0908 23.9021 31.371 24.3639 31.8183L24.4241 31.8822C24.8457 32.3295 25.1067 32.9243 25.1067 33.5781C25.1067 34.2319 24.8206 34.8856 24.3639 35.333C23.9021 35.7901 23.2698 36.0654 22.5671 36.0654C21.8645 36.0654 21.2321 35.7852 20.7704 35.3379C20.3087 34.8856 20.0276 34.2663 20.0276 33.5781C20.0276 32.8899 20.3137 32.2706 20.7704 31.8183C21.2321 31.3661 21.8645 31.0908 22.5671 31.0908ZM37.3726 32.1722C37.3726 32.7179 36.926 33.1554 36.3689 33.1554C35.8118 33.1554 35.3651 32.7179 35.3651 32.1722C35.3651 32.0297 35.2597 31.8773 35.0841 31.7544C34.8181 31.5627 34.4366 31.4447 34 31.4447C33.5634 31.4447 33.1819 31.5627 32.9159 31.7544C32.7453 31.8773 32.6349 32.0297 32.6349 32.1722C32.6349 32.3394 32.7754 32.5311 33.0013 32.7375C33.3526 33.0521 33.8595 33.3471 34.4316 33.6174C35.1694 33.9664 35.8469 34.3646 36.3538 34.8217C36.9812 35.3919 37.3726 36.0506 37.3726 36.8322C37.3726 37.6138 36.9511 38.3413 36.2685 38.8329C35.9122 39.0885 35.4806 39.29 35.0038 39.4031V39.9192C35.0038 40.4648 34.5571 40.9023 34 40.9023C33.4429 40.9023 32.9962 40.4648 32.9962 39.9192V39.4031C32.5194 39.2851 32.0878 39.0885 31.7315 38.8329C31.0489 38.3413 30.6274 37.6335 30.6274 36.8322C30.6274 36.2866 31.074 35.8491 31.6311 35.8491C32.1882 35.8491 32.6349 36.2866 32.6349 36.8322C32.6349 36.9748 32.7403 37.1271 32.9159 37.25C33.1769 37.4417 33.5634 37.5597 34 37.5597C34.4366 37.5597 34.8181 37.4417 35.0841 37.25C35.2547 37.1271 35.3651 36.9748 35.3651 36.8322C35.3651 36.6651 35.2246 36.4734 34.9987 36.2669C34.6474 35.9523 34.1405 35.6574 33.5684 35.387C32.8306 35.038 32.1531 34.6399 31.6462 34.1827C31.0188 33.6125 30.6274 32.9538 30.6274 32.1722C30.6274 31.3907 31.0489 30.6632 31.7315 30.1716C32.0878 29.916 32.5194 29.7145 32.9962 29.6014V29.0853C32.9962 28.5396 33.4429 28.1021 34 28.1021C34.5571 28.1021 35.0038 28.5396 35.0038 29.0853V29.6014C35.4806 29.7194 35.9122 29.916 36.2685 30.1716C36.9511 30.6632 37.3726 31.371 37.3726 32.1722ZM51.9925 43.601V27.3845C50.9084 27.527 49.8143 27.6204 48.7102 27.6647C47.2146 27.7286 45.7089 27.7089 44.1832 27.6204C40.394 27.3943 36.8758 26.829 33.4429 26.2735C27.6913 25.3494 22.1606 24.4548 16.0075 25.3199V41.5856C18.0251 41.3644 20.0376 41.2808 22.0652 41.3152C24.4642 41.3496 26.8783 41.5413 29.3526 41.8559C31.3501 42.1066 33.2723 42.4261 35.1995 42.7407C38.3965 43.2667 41.5985 43.7927 44.7704 43.9795C46.1556 44.063 47.5056 44.0729 48.8407 43.9893C49.9046 43.9254 50.9536 43.8025 51.9925 43.6108V43.601ZM54 26.2441V44.4022C54 44.8495 53.6788 45.2575 53.212 45.3607C51.7967 45.6655 50.3864 45.8572 48.9661 45.9408C47.5458 46.0293 46.1104 46.0145 44.6499 45.931C41.3676 45.7343 38.1154 45.2034 34.8683 44.6677C32.9159 44.3481 30.9686 44.0286 29.0966 43.7927C26.6926 43.4879 24.3538 43.3011 22.0402 43.2667C19.7616 43.2323 17.4981 43.3503 15.2146 43.655C15.1443 43.6698 15.074 43.6747 15.0038 43.6747C14.4467 43.6747 14 43.2372 14 42.6916V24.4744C14 24.0026 14.3513 23.5847 14.8381 23.5061C21.6487 22.3804 27.5859 23.3389 33.7641 24.3319C37.1468 24.8775 40.6048 25.433 44.3036 25.6542C45.7691 25.7427 47.2095 25.7623 48.6248 25.6984C50.0151 25.6394 51.3902 25.5018 52.7654 25.2806C52.8407 25.2609 52.9159 25.256 52.9962 25.256C53.5533 25.256 54 25.6935 54 26.2391V26.2441ZM45.4379 32.8309C46.1405 32.8309 46.7729 33.1111 47.2346 33.5584C47.6964 34.0107 47.9774 34.63 47.9774 35.3182C47.9774 36.0064 47.6913 36.6258 47.2346 37.078C46.7729 37.5302 46.1405 37.8055 45.4379 37.8055C44.7353 37.8055 44.1029 37.5253 43.6412 37.078L43.5809 37.0141C43.1593 36.5668 42.8984 35.972 42.8984 35.3182C42.8984 34.6644 43.1844 34.0107 43.6412 33.5634C44.1029 33.1062 44.7353 32.8309 45.4379 32.8309ZM45.8143 34.9495C45.7189 34.8562 45.5834 34.7972 45.4379 34.7972C45.2923 34.7972 45.1568 34.8562 45.0615 34.9495C44.9661 35.0429 44.9059 35.1757 44.9059 35.3182C44.9059 35.4509 44.9561 35.5738 45.0364 35.6623L45.0615 35.6869C45.1568 35.7803 45.2923 35.8393 45.4379 35.8393C45.5834 35.8393 45.7189 35.7803 45.8143 35.6869C45.9097 35.5935 45.9699 35.4608 45.9699 35.3182C45.9699 35.1757 45.9097 35.0429 45.8143 34.9495ZM22.9435 33.2094C22.8482 33.116 22.7127 33.057 22.5671 33.057C22.4216 33.057 22.2861 33.116 22.1907 33.2094C22.0954 33.3028 22.0351 33.4355 22.0351 33.5781C22.0351 33.7207 22.0954 33.8534 22.1907 33.9468C22.2861 34.0402 22.4216 34.0992 22.5671 34.0992C22.7127 34.0992 22.8482 34.0402 22.9435 33.9468C23.0389 33.8534 23.0991 33.7207 23.0991 33.5781C23.0991 33.4454 23.0489 33.3225 22.9686 33.234L22.9435 33.2094Z" fill="white"/>
</g>
<defs>
<clipPath id="clip0_496_256">
<rect width="40" height="23" fill="white" transform="translate(14 23)"/>
</clipPath>
</defs>
</svg>
