<svg width="68" height="68" viewBox="0 0 68 68" fill="none" xmlns="http://www.w3.org/2000/svg">
<circle cx="34" cy="34" r="34" fill="#F26D00"/>
<g clip-path="url(#clip0_495_255)">
<path d="M34.5017 34C32.5613 34 30.6979 33.2114 29.3263 31.8023C27.9546 30.3931 27.1818 28.4869 27.1818 26.4983C27.1818 24.5097 27.9513 22.6 29.3263 21.1943C30.7012 19.7886 32.558 19 34.5017 19C36.4454 19 38.3055 19.7886 39.6771 21.1977C41.0487 22.6034 41.8215 24.5131 41.8215 26.5017C41.8215 28.4903 41.0487 30.3966 39.6771 31.8023C38.3055 33.208 36.4454 34 34.505 34H34.5017ZM34.5017 21.1429C33.1167 21.1429 31.7852 21.7051 30.805 22.7131C29.8247 23.7177 29.2727 25.0789 29.2727 26.5017C29.2727 27.9246 29.8214 29.2857 30.805 30.2903C31.7852 31.2949 33.1133 31.8606 34.5017 31.8606C35.89 31.8606 37.2182 31.2983 38.1984 30.2903C39.1786 29.2857 39.7306 27.9246 39.7306 26.5017C39.7306 25.0823 39.1786 23.7211 38.1984 22.7166C37.2182 21.712 35.89 21.1463 34.505 21.1463L34.5017 21.1429ZM34.5017 49C31.28 49 28.0617 48.7017 24.8902 48.112C23.7929 47.9097 22.9967 46.9291 23 45.7874C23 42.9451 24.104 40.2229 26.0644 38.2137C28.0249 36.2046 30.6812 35.0731 33.4546 35.0731H35.5455C38.3188 35.0731 40.9751 36.2046 42.9356 38.2137C44.896 40.2229 46 42.9451 46 45.7874C46 46.9257 45.2105 47.9063 44.1199 48.112C40.945 48.7017 37.7267 49 34.5017 49.0034V49ZM33.4546 37.216C31.2365 37.216 29.1122 38.1211 27.5431 39.7291C25.9741 41.3337 25.0943 43.5143 25.0909 45.7874C25.0909 45.8903 25.1645 45.9794 25.2615 46C31.3737 47.1314 37.633 47.1314 43.7452 46C43.8422 45.9794 43.9124 45.8903 43.9091 45.7874C43.9091 43.5143 43.0259 41.3371 41.4569 39.7291C39.8912 38.1211 37.7635 37.2194 35.5455 37.216H33.4546Z" fill="white"/>
</g>
<defs>
<clipPath id="clip0_495_255">
<rect width="23" height="30" fill="white" transform="translate(23 19)"/>
</clipPath>
</defs>
</svg>
