<svg width="396" height="100" viewBox="0 0 396 100" fill="none" xmlns="http://www.w3.org/2000/svg">
<g clip-path="url(#clip0_39_432)">
<path d="M43.7153 71.2133C44.4189 62.0676 50.0211 53.9832 58.3977 50.0262C68.7259 45.2437 81.0054 44.1038 85.1739 33.3333C89.5281 22.0781 78.1513 13.2862 66.0841 12.7096C49.0254 11.8973 41.3922 25.131 38.299 39.3213C34.7811 55.5031 43.7153 71.2133 43.7153 71.2133Z" fill="#3BABE2"/>
<path d="M29.6303 93.5274C29.1391 94.9818 28.1037 96.1872 26.723 96.8817C25.13 97.6154 23.4441 98.1657 21.705 98.4933C27.639 100.799 34.2899 100.446 39.9319 97.4975C51.322 91.1558 47.6581 79.6516 43.3038 74.5153C38.538 69.0515 30.1746 68.4225 24.6388 73.1395C23.3644 74.2139 22.3157 75.5242 21.5457 76.9917C15.386 87.3036 29.6303 93.5274 29.6303 93.5274Z" fill="#DFDC00"/>
<path d="M36.6662 68.2914C32.8695 64.5441 27.3337 63.0635 22.1431 64.4261C15.771 66.1426 9.94314 70.2044 3.98257 66.9943C-1.97801 63.7841 -0.517733 55.4377 4.52685 50.8124C11.7486 44.13 20.1252 47.1174 26.8956 52.2013C31.8207 56.368 35.2457 62.0021 36.6662 68.2521V68.2914Z" fill="#C70C0F"/>
<path d="M77.992 59.9973C78.9478 57.9009 80.6736 56.2369 82.8374 55.3721C85.373 54.4549 88.0148 53.8391 90.7096 53.5508C90.7096 53.5508 76.5184 45.2699 62.0617 51.795C43.8879 60.0235 47.4191 78.826 53.393 87.1986C59.3668 95.5712 78.9079 101.467 88.2272 85.469C97.5464 69.4706 77.992 60.0366 77.992 60.0366V60.0104V59.9973Z" fill="#009D40"/>
<path d="M250.915 32.3374H254.964C257.3 36.4386 259.637 40.5528 261.987 44.654C262.026 44.654 262.066 44.654 262.106 44.6409V32.2588H265.69V50.3668H261.854C259.424 46.2001 256.982 42.0203 254.552 37.8405C254.513 37.8405 254.46 37.8405 254.42 37.8537V50.3668H250.915V32.3112V32.3374Z" fill="#171717"/>
<path d="M235.051 40.9065C235.874 41.8892 236.697 42.8588 237.56 43.8939C238.25 43.0422 238.396 42.0726 238.556 41.0637H241.808C241.835 42.0595 241.596 43.016 241.211 43.907C240.826 44.7849 240.321 45.6104 239.83 46.5276C240.852 47.733 241.914 48.9909 243.043 50.3404C242.764 50.3798 242.605 50.4322 242.432 50.4322C241.383 50.4322 240.348 50.4322 239.299 50.4322C238.901 50.4322 238.609 50.3142 238.37 49.9998C238.091 49.6329 237.772 49.2791 237.454 48.8861C237.162 49.1219 236.923 49.3053 236.684 49.515C234.493 51.3756 229.767 51.5983 227.404 48.6895C225.931 46.8813 225.851 44.3918 227.311 42.5574C227.896 41.8237 228.599 41.2341 229.369 40.7231C229.595 40.5789 229.807 40.4217 230.086 40.2514C229.834 39.8976 229.621 39.57 229.396 39.2424C228.626 38.1418 228.36 36.9102 228.573 35.5999C228.838 34.0145 229.927 33.0711 231.36 32.5863C232.874 32.0753 234.427 32.0753 235.914 32.8483C238.715 34.3027 238.423 37.8405 237.016 39.2424C236.432 39.8321 235.755 40.3169 235.077 40.9065H235.051ZM231.971 42.505C231.453 42.9505 230.975 43.3174 230.537 43.7367C229.555 44.6932 229.555 46.1083 230.511 47.0779C231.161 47.733 231.931 47.9689 232.861 47.8116C233.816 47.6544 234.666 47.3137 235.396 46.58C234.268 45.2173 233.153 43.907 231.971 42.4919V42.505ZM233.06 38.6921C233.723 38.2466 234.268 37.8798 234.6 37.3032C235.131 36.386 234.772 35.3378 233.843 35.0365C233.179 34.8137 232.582 34.971 232.117 35.4689C231.666 35.9406 231.706 36.5171 231.958 37.0281C232.25 37.5915 232.661 38.1025 233.06 38.6921Z" fill="#171717"/>
<path d="M108.299 32.2588H112.747C114.897 38.286 117.048 44.274 119.185 50.275C118.681 50.4716 116.238 50.5371 115.096 50.3799C114.671 49.2137 114.233 47.9952 113.782 46.7504H107.038C106.627 47.9559 106.215 49.1744 105.79 50.4061H101.715C103.918 44.3264 106.096 38.3122 108.299 32.2588ZM108.113 43.4616C109.733 43.4616 111.233 43.4747 112.813 43.4485C112.03 41.1162 111.286 38.915 110.543 36.7006C110.49 36.7006 110.437 36.7006 110.397 36.7006C109.653 38.9019 108.91 41.1162 108.113 43.4616Z" fill="#171717"/>
<path d="M295.732 50.393H292.028C291.351 47.2877 290.674 44.2216 289.997 41.1556C289.944 41.1556 289.891 41.1556 289.838 41.1556C289.148 44.2347 288.471 47.3008 287.78 50.4061H284.037C282.776 45.9643 281.501 41.5094 280.213 36.9758H284.09C284.78 40.0812 285.47 43.1734 286.161 46.2526C286.187 46.2526 286.214 46.2526 286.24 46.2526C286.864 43.1734 287.488 40.0812 288.126 36.9758H291.803C292.467 40.0943 293.13 43.1734 293.781 46.2526C293.821 46.2526 293.847 46.2526 293.887 46.2657C294.564 43.1865 295.241 40.1074 295.918 36.9758H299.688C298.361 41.4701 297.06 45.8988 295.732 50.393Z" fill="#171717"/>
<path d="M315.486 35.5345H306.552C306.352 35.0235 306.299 33.2678 306.445 32.3637C306.923 32.1802 319.601 32.1409 320.398 32.3375C320.398 33.2678 320.424 34.2243 320.384 35.1808C320.384 35.4166 320.159 35.6525 319.999 35.8621C317.424 39.0461 314.849 42.23 312.273 45.4009C311.822 45.9512 311.384 46.5015 310.853 47.1698H320.398C320.424 48.2704 320.411 49.2924 320.398 50.3799H306.18C306.18 49.9737 306.18 49.5807 306.14 49.1876C305.967 47.9035 306.419 46.9077 307.255 45.8988C309.91 42.6886 312.459 39.3998 315.048 36.1504C315.167 35.9931 315.287 35.8228 315.499 35.5214L315.486 35.5345Z" fill="#171717"/>
<path d="M396 50.393H392.588C392.562 49.8951 392.522 49.4365 392.495 48.8993C392.349 49.0173 392.23 49.0828 392.164 49.1745C390.398 51.5199 386.283 51.4282 384.397 48.9386C383.362 47.576 382.791 46.0691 382.778 44.3396C382.751 42.61 382.977 40.9591 383.853 39.4261C384.889 37.6048 386.468 36.6876 388.553 36.6221C389.947 36.5828 391.128 37.0676 392.044 38.1027C392.11 38.1813 392.19 38.2599 392.376 38.4565V32.272H396V50.393ZM392.509 43.9727C392.522 42.2694 392.27 41.4963 391.407 40.566C390.159 39.2033 387.849 39.544 387.092 41.208C386.336 42.8852 386.322 44.5754 387.013 46.2919C387.451 47.3663 388.261 47.8249 389.376 47.8773C390.438 47.9297 391.261 47.5366 391.818 46.6064C392.323 45.7547 392.575 44.8375 392.495 43.9858L392.509 43.9727Z" fill="#171717"/>
<path d="M113.278 76.7556H111.499C109.428 71.2393 107.357 65.6969 105.273 60.1544C105.219 60.1544 105.18 60.1675 105.127 60.1806V76.7425H103.268V57.4946H106.122C108.206 63.037 110.304 68.6057 112.401 74.1743C112.454 74.1743 112.508 74.1874 112.547 74.2005C113.623 71.449 114.618 68.6712 115.654 65.8934C116.703 63.1025 117.725 60.3116 118.773 57.4814H121.455V76.7294H119.636C119.543 75.3667 119.61 73.9909 119.597 72.6151C119.597 71.2262 119.597 69.8373 119.597 68.4484C119.597 67.0857 119.597 65.7231 119.597 64.3473C119.597 62.9584 119.597 61.5826 119.597 60.1937C119.543 60.1937 119.504 60.1675 119.45 60.1544C117.393 65.6838 115.322 71.2 113.251 76.7425L113.278 76.7556Z" fill="#171717"/>
<path d="M280.824 44.798H270.987C270.775 46.0034 271.518 47.2482 272.713 47.7592C274.333 48.4536 275.793 48.0475 276.935 46.5669H280.519C280.585 47.0779 280.36 47.4709 280.134 47.8378C279.098 49.515 277.585 50.5763 275.607 50.8252C274.001 51.0349 272.408 50.9039 270.894 50.1963C268.664 49.1481 267.483 47.3792 267.23 45.0076C267.084 43.658 267.111 42.2823 267.589 40.9589C268.399 38.7445 269.899 37.146 272.275 36.7398C275.063 36.2681 277.678 36.7398 279.563 39.0983C280.386 40.1203 280.811 41.3127 280.824 42.636C280.824 43.3043 280.824 43.9725 280.824 44.7849V44.798ZM270.921 42.2954H276.815C276.921 40.6968 275.713 39.6355 273.735 39.5176C272.328 39.439 271.04 40.6837 270.921 42.2954Z" fill="#171717"/>
<path d="M334.642 44.798C332.903 44.798 331.283 44.798 329.664 44.798C328.044 44.798 326.451 44.798 324.871 44.798C324.447 46.069 325.509 47.2482 326.385 47.6937C327.951 48.4799 329.531 48.0606 330.752 46.5669H334.35C334.283 47.4186 333.872 48.0475 333.367 48.624C331.708 50.5108 329.597 51.1397 327.128 50.8384C325.867 50.6811 324.699 50.3143 323.663 49.5936C322.004 48.4406 321.168 46.8289 321.061 44.8897C320.995 43.8546 320.982 42.7671 321.207 41.7582C321.778 39.1638 323.371 37.3557 326.026 36.766C328.602 36.1895 332.199 36.9626 333.739 39.8452C334.164 40.6313 334.429 41.4568 334.509 42.3347C334.589 43.1209 334.589 43.9201 334.629 44.8242L334.642 44.798ZM330.726 42.3085C330.752 41.221 330.274 40.4479 329.398 39.9631C328.323 39.3604 327.168 39.308 326.106 39.9631C325.27 40.4741 324.858 41.2996 324.765 42.3085H330.726Z" fill="#171717"/>
<path d="M367.272 50.4061H363.25C363.144 49.9869 363.038 49.5676 362.931 49.0959C362.467 49.4234 362.042 49.7772 361.564 50.0524C359.745 51.1137 357.887 51.2578 356.055 50.0917C354.661 49.2007 354.263 47.8249 354.422 46.2919C354.568 44.8113 355.325 43.7107 356.745 43.0686C357.927 42.5445 359.188 42.4266 360.436 42.2563C361.02 42.1776 361.604 42.0859 362.161 41.9156C362.812 41.7059 362.984 41.3784 362.945 40.7494C362.918 40.1991 362.666 39.8847 362.055 39.7143C361.352 39.5178 360.635 39.4261 359.905 39.6095C359.201 39.7929 358.657 40.1467 358.484 40.8936C358.458 41.0246 358.405 41.1425 358.338 41.3129H354.926C354.913 40.0943 355.298 39.0723 356.108 38.2337C357.143 37.1724 358.431 36.6352 359.944 36.6221C361.458 36.609 362.931 36.7662 364.339 37.3558C365.786 37.9717 366.502 39.0723 366.502 40.6184C366.502 43.1472 366.502 45.6761 366.502 48.2049C366.502 48.8076 366.502 49.4103 367.087 49.8296C367.193 49.9082 367.179 50.131 367.259 50.4061H367.272ZM362.892 44.0644C361.856 44.2872 360.821 44.4706 359.798 44.7196C359.413 44.8113 359.029 44.9947 358.697 45.2044C357.781 45.794 357.834 47.3139 358.763 47.8773C360.276 48.8076 362.6 47.6939 362.892 45.8595C362.984 45.2568 362.905 44.6278 362.905 44.0644H362.892Z" fill="#171717"/>
<path d="M338.452 41.3129H335.107C335.133 40.0943 335.492 39.033 336.328 38.1944C337.337 37.1855 338.585 36.6483 340.045 36.6221C341.598 36.5828 343.125 36.74 344.559 37.382C345.966 37.9979 346.683 39.0723 346.683 40.5922C346.683 43.1603 346.683 45.7285 346.683 48.3097C346.683 48.8731 346.723 49.4235 347.24 49.8165C347.36 49.9083 347.36 50.1441 347.426 50.4062H343.457C343.364 49.9738 343.271 49.5545 343.178 49.0828C342.714 49.4103 342.262 49.7641 341.771 50.0786C339.979 51.2054 337.695 51.1661 336.089 49.9607C335.213 49.3055 334.709 48.4276 334.695 47.327C334.695 46.7112 334.695 46.0561 334.841 45.4664C335.147 44.3265 335.917 43.5403 337.018 43.0555C338.134 42.5707 339.328 42.4266 340.51 42.2563C341.041 42.1776 341.585 42.099 342.103 41.9549C342.82 41.7584 343.006 41.457 342.992 40.8019C342.992 40.1991 342.727 39.8454 342.036 39.6881C341.532 39.5702 341.001 39.5047 340.497 39.5309C339.368 39.5833 338.625 40.1336 338.465 41.326L338.452 41.3129ZM343.059 44.0644C342.063 44.2741 341.067 44.4837 340.085 44.7065C339.78 44.772 339.474 44.8899 339.196 45.0209C338.479 45.3616 338.12 46.174 338.306 46.9339C338.505 47.7463 339.023 48.1525 339.912 48.1656C340.098 48.1656 340.271 48.1656 340.457 48.1656C341.744 48.087 342.833 47.2091 343.032 45.9905C343.138 45.3485 343.045 44.6672 343.045 44.0644H343.059Z" fill="#171717"/>
<path d="M203.708 50.3013H199.739C199.646 49.882 199.553 49.4365 199.474 48.991C198.982 49.3317 198.518 49.7379 198 50.0261C196.234 50.9958 194.429 51.1399 192.65 50.0786C191.256 49.24 190.818 47.9035 190.924 46.3836C191.031 44.8375 191.8 43.6844 193.287 43.0555C194.575 42.5052 195.956 42.3742 197.31 42.1252C197.774 42.0466 198.239 41.9549 198.69 41.8107C199.168 41.6666 199.42 41.2997 199.434 40.8018C199.447 40.2777 199.221 39.9108 198.717 39.7012C197.934 39.3867 197.111 39.3605 196.314 39.5178C195.69 39.6357 195.239 40.0681 195.013 40.6839C194.947 40.8673 194.88 41.0639 194.814 41.2735H191.429C191.402 40.0026 191.814 38.9412 192.677 38.0896C193.885 36.9103 195.385 36.4648 197.084 36.5565C198.332 36.6352 199.553 36.7662 200.721 37.251C202.208 37.8668 202.992 38.9937 202.992 40.566C202.992 43.0686 202.992 45.5712 202.992 48.0738C202.992 48.7028 202.965 49.3317 203.589 49.7641C203.695 49.8296 203.682 50.0786 203.735 50.2882L203.708 50.3013ZM199.407 44.0513C198.518 44.2478 197.708 44.4051 196.898 44.6016C196.42 44.7195 195.929 44.8375 195.478 45.0471C194.761 45.3747 194.416 46.2133 194.602 46.9732C194.801 47.7463 195.332 48.1525 196.181 48.1787C196.367 48.1787 196.54 48.1787 196.726 48.1787C198.106 48.1132 199.261 47.078 199.394 45.7678C199.447 45.1912 199.394 44.6147 199.394 44.0644L199.407 44.0513Z" fill="#171717"/>
<path d="M177.569 50.3143H173.6C173.52 49.9081 173.428 49.4757 173.321 48.9647C173.162 49.1088 173.003 49.2398 172.843 49.3709C171.317 50.6156 169.591 51.1266 167.653 50.6025C165.914 50.1308 164.852 48.8074 164.759 47.0386C164.666 45.1518 165.608 43.6974 167.294 43.0029C168.449 42.5312 169.657 42.4395 170.865 42.2561C171.423 42.1775 171.981 42.0857 172.525 41.9416C173.162 41.7713 173.414 41.3913 173.414 40.8279C173.414 40.2645 173.149 39.8976 172.525 39.7142C171.821 39.5045 171.104 39.4259 170.388 39.5831C169.671 39.7404 169.153 40.1334 168.967 40.8541C168.927 40.9982 168.861 41.1423 168.795 41.2996H165.409C165.436 39.7535 165.993 38.5349 167.228 37.6439C168.184 36.9495 169.272 36.6088 170.467 36.5957C171.927 36.5957 173.361 36.7398 174.729 37.3032C176.162 37.906 176.853 39.0066 176.866 40.5134C176.892 42.9767 176.866 45.4269 176.866 47.8903C176.866 48.5847 176.773 49.2922 177.477 49.777C177.569 49.8426 177.543 50.0784 177.583 50.3012L177.569 50.3143ZM173.242 44.0643C172.273 44.2739 171.304 44.4573 170.348 44.6932C169.923 44.798 169.485 44.9814 169.1 45.1911C168.37 45.5973 168.37 46.3179 168.449 47.0255C168.516 47.5496 169.06 48.0475 169.671 48.1392C170.042 48.1916 170.441 48.1916 170.826 48.1392C172.073 47.9951 173.069 47.0779 173.242 45.8593C173.321 45.2566 173.255 44.6277 173.255 44.0643H173.242Z" fill="#171717"/>
<path d="M134.531 46.1607H138.129C138.169 46.2262 138.222 46.3048 138.235 46.3834C138.408 47.4185 139.111 47.9033 140.08 48.0737C140.89 48.2178 141.7 48.2047 142.496 47.9164C143.08 47.7068 143.266 47.4709 143.28 46.9468C143.293 46.4227 143.147 46.1476 142.536 45.9641C141.328 45.5973 140.107 45.2566 138.885 44.9552C137.93 44.7194 137.027 44.3918 136.204 43.8546C135.407 43.3305 135.009 42.5967 134.929 41.6795C134.704 39.2162 136.244 37.6046 138.341 36.9757C140.505 36.3205 142.669 36.5171 144.647 37.6439C145.948 38.3908 146.598 39.5831 146.585 41.1554H143.041C142.908 40.4479 142.563 39.8845 141.872 39.6224C140.943 39.2817 140.001 39.321 139.098 39.7272C138.686 39.9107 138.5 40.2644 138.527 40.7099C138.554 41.1685 138.846 41.3782 139.244 41.483C140.359 41.7844 141.474 42.0857 142.589 42.3609C143.585 42.6098 144.541 42.9243 145.39 43.5008C146.811 44.4573 147.222 45.7676 146.837 47.5758C146.585 48.7681 145.828 49.6067 144.74 50.1439C143.824 50.5894 142.855 50.9039 141.806 50.8908C141.036 50.8908 140.266 50.917 139.496 50.8514C137.983 50.7335 136.642 50.157 135.58 49.0695C134.81 48.2833 134.465 47.3137 134.558 46.1607H134.531Z" fill="#171717"/>
<path d="M208.965 50.3929H205.301C205.301 45.9248 205.301 41.5223 205.301 37.0412H208.793V38.7446C208.992 38.548 209.111 38.4694 209.191 38.3515C209.934 37.3688 210.93 36.7529 212.165 36.6874C213.373 36.6219 214.554 36.7791 215.643 37.3688C216.399 37.7881 216.957 38.4039 217.276 39.19C217.475 39.688 217.647 40.2252 217.661 40.7362C217.7 43.8022 217.687 46.8682 217.687 49.9343C217.687 50.0653 217.661 50.1963 217.634 50.3798H213.97C213.944 50.0915 213.904 49.8033 213.904 49.5281C213.904 47.1303 213.904 44.7456 213.904 42.3478C213.904 41.8892 213.864 41.4044 213.744 40.9589C213.492 40.0679 212.815 39.5831 211.886 39.5962C209.934 39.6224 209.111 40.6051 209.018 42.5312C208.912 44.8373 208.992 47.1434 208.979 49.4495C208.979 49.7377 208.979 50.026 208.979 50.3929H208.965Z" fill="#171717"/>
<path d="M368.852 37.0282H372.277C372.304 37.5392 372.33 38.024 372.37 38.6136C372.556 38.4433 372.689 38.3516 372.782 38.2337C373.552 37.2116 374.64 36.7661 375.888 36.6482C377.043 36.5434 378.145 36.753 379.154 37.3427C380.362 38.0502 381.026 39.1508 381.052 40.4873C381.119 43.6582 381.079 46.8421 381.079 50.013C381.079 50.1178 381.052 50.2227 381.026 50.3799H377.375C377.375 50.0785 377.375 49.8427 377.375 49.6068C377.375 47.1697 377.375 44.7326 377.375 42.2955C377.375 41.8762 377.322 41.4438 377.229 41.0376C377.07 40.3432 376.618 39.9108 375.941 39.6881C374.627 39.2688 373.1 40.0025 372.729 41.3128C372.529 42.0203 372.423 42.7541 372.41 43.4878C372.37 45.5188 372.397 47.5628 372.397 49.5937V50.3799H368.852V37.0151V37.0282Z" fill="#171717"/>
<path d="M132.606 50.3144H129.221C129.194 49.7641 129.168 49.2531 129.141 48.6504C129.022 48.7552 128.942 48.7945 128.902 48.86C128.186 49.8558 127.177 50.3668 125.995 50.5502C124.216 50.8254 122.583 50.6027 121.389 49.0958C120.605 48.1 120.38 46.9077 120.366 45.676C120.34 42.9638 120.366 40.2646 120.366 37.5523C120.366 37.382 120.393 37.1986 120.406 36.9627H124.07C124.084 37.2379 124.123 37.4868 124.123 37.7489C124.123 39.7798 124.123 41.8238 124.123 43.8548C124.123 44.4837 124.176 45.0995 124.19 45.7284C124.243 47.5366 125.677 48.1131 127.27 47.6152C128.451 47.2484 128.81 46.2526 128.942 45.1519C129.009 44.6409 128.995 44.1299 128.995 43.6058C128.995 41.6797 128.995 39.7536 128.995 37.8275C128.995 37.5654 128.995 37.3034 128.995 36.9627C130.23 36.8186 131.385 36.9103 132.606 36.8972V50.2882V50.3144Z" fill="#171717"/>
<path d="M188.535 67.4003V76.7294H186.583V57.4946H188.415V65.6707H199.951C200.071 64.3211 199.991 62.9716 200.005 61.6089C200.018 60.2462 200.005 58.8966 200.005 57.4946H201.876V76.7425H200.031C199.978 73.6241 200.031 70.5318 199.991 67.4527C199.487 67.2824 189.451 67.23 188.548 67.4134L188.535 67.4003Z" fill="#171717"/>
<path d="M273.018 57.4685H275.103C277.585 63.8495 280.067 70.2437 282.576 76.6902C281.913 76.8605 281.315 76.7688 280.652 76.7688C279.908 74.7772 279.165 72.7987 278.408 70.794H269.54C268.757 72.7463 267.96 74.7379 267.151 76.7557H265.451C265.451 76.2578 272.262 58.9098 273.018 57.4816V57.4685ZM273.948 59.3029C273.948 59.3029 273.841 59.3029 273.788 59.316C272.58 62.5393 271.359 65.7756 270.124 69.0644H277.638C276.39 65.7625 275.169 62.5262 273.934 59.3029H273.948Z" fill="#171717"/>
<path d="M152.851 37.0544H155.028V39.6488C154.338 39.675 153.661 39.7012 152.931 39.7274C152.904 40.0025 152.878 40.2122 152.878 40.4349C152.878 42.4921 152.878 44.5492 152.878 46.6063C152.878 46.6718 152.878 46.7373 152.878 46.8029C152.904 47.7069 153.156 47.9428 154.072 47.9428C154.364 47.9428 154.656 47.9428 155.028 47.9428C155.121 48.8076 155.055 49.6461 155.055 50.5764C153.541 50.5109 152.081 50.8647 150.661 50.2227C149.917 49.882 149.466 49.3579 149.333 48.5717C149.28 48.2442 149.253 47.9035 149.253 47.5759C149.253 45.2043 149.253 42.8327 149.253 40.4611C149.253 40.1991 149.253 39.937 149.253 39.5964H147.382V37.0675H149.187C149.32 35.8097 149.187 34.6042 149.28 33.3464C150.461 33.2284 151.59 33.2677 152.824 33.3202V37.0544H152.851Z" fill="#171717"/>
<path d="M232.064 75.4848C232.091 75.6551 232.117 75.7992 232.117 75.9565C232.117 76.1923 232.117 76.4413 232.117 76.6902C231.321 77.0309 230.551 77.0047 229.807 76.8212C229.223 76.6771 228.971 76.1661 228.838 75.6158C228.799 75.4324 228.799 75.2227 228.772 74.9738C228.666 75.0524 228.586 75.0917 228.52 75.1572C227.259 76.3889 225.719 77.0178 223.966 77.1488C222.506 77.2667 221.179 76.8737 220.05 75.9434C219.811 75.7468 219.612 75.4848 219.453 75.2227C218.457 73.5849 218.457 70.6368 221.364 69.4837C222.572 68.9989 223.86 68.8679 225.135 68.6976C225.851 68.5927 226.568 68.5141 227.285 68.3962C228.307 68.2128 228.546 67.8721 228.56 66.8501C228.586 65.1074 227.511 64.0985 225.891 63.9937C225.042 63.9413 224.165 64.0461 223.342 64.2164C222.241 64.4523 221.643 65.2646 221.351 66.2998C221.285 66.5356 221.232 66.7714 221.165 67.0466H219.519C219.559 66.6666 219.559 66.3391 219.639 66.0246C220.156 64.164 221.404 63.0503 223.289 62.631C224.59 62.3427 225.905 62.3427 227.192 62.631C228.958 63.0503 230.232 64.1378 230.338 66.0901C230.431 67.7148 230.418 69.3527 230.431 70.9905C230.431 72.0912 230.431 73.1787 230.431 74.2793C230.431 74.5021 230.431 74.7379 230.498 74.9476C230.657 75.4455 230.949 75.6158 231.48 75.5372C231.653 75.511 231.839 75.4848 232.038 75.4455L232.064 75.4848ZM228.732 69.4837C227.033 70.1257 225.413 70.152 223.834 70.3616C223.117 70.4533 222.4 70.7547 221.723 71.0429C221.258 71.2395 220.926 71.6195 220.74 72.1043C220.13 73.6373 220.913 75.1703 222.626 75.5372C224.192 75.8778 225.705 75.5503 227.046 74.7117C227.816 74.2269 228.414 73.4932 228.533 72.5629C228.653 71.5933 228.666 70.6106 228.732 69.4968V69.4837Z" fill="#171717"/>
<path d="M161.825 67.0727H160.139C160.192 66.6927 160.205 66.3389 160.298 66.0113C160.803 64.2163 162.051 63.1812 163.816 62.7226C165.356 62.3164 166.909 62.3688 168.436 62.8405C169.87 63.286 170.919 64.5962 171.011 66.0638C171.078 67.1513 171.104 68.2519 171.104 69.3525C171.118 70.8987 171.104 72.4448 171.104 73.9778C171.104 74.1612 171.104 74.3316 171.104 74.515C171.171 75.4584 171.476 75.7074 172.405 75.537C172.498 75.5239 172.578 75.5108 172.724 75.4846V76.7294C171.967 77.0569 171.184 77.0307 170.414 76.8342C169.843 76.677 169.591 76.166 169.472 75.6156C169.432 75.4453 169.445 75.2619 169.432 74.9867C169.259 75.1177 169.126 75.2095 169.007 75.3143C167.6 76.559 165.954 77.2273 164.055 77.2011C162.967 77.188 161.971 76.8866 161.042 76.297C158.984 74.9867 158.865 71.2655 161.254 69.9028C162.476 69.2084 163.803 69.0119 165.157 68.8546C166.126 68.7367 167.082 68.6057 168.051 68.4485C168.33 68.396 168.635 68.3043 168.874 68.1471C169.073 68.003 169.299 67.7671 169.339 67.5444C169.75 65.6314 168.529 64.1114 166.538 64.0328C165.993 64.0066 165.449 64.0197 164.905 64.059C163.312 64.1901 162.369 64.9762 161.958 66.4961C161.905 66.6665 161.865 66.8368 161.798 67.0989L161.825 67.0727ZM169.299 69.6015C169.153 69.6015 169.087 69.5884 169.033 69.6015C167.799 70.0208 166.538 70.1911 165.237 70.2566C164.268 70.309 163.299 70.4794 162.436 70.9773C161.958 71.2524 161.546 71.5931 161.36 72.1434C160.896 73.5847 161.334 75.0915 163.285 75.5501C164.321 75.786 165.316 75.5763 166.299 75.3274C167.56 75.0129 168.502 74.2661 169.007 73.0868C169.485 71.96 169.299 70.7807 169.286 69.5884L169.299 69.6015Z" fill="#171717"/>
<path d="M355.855 75.4323V76.6246C355.046 76.9784 354.209 77.0046 353.386 76.6771C352.908 76.4936 352.709 76.0481 352.616 75.5633C352.576 75.3668 352.563 75.1833 352.523 74.9344C352.045 75.2882 351.634 75.6419 351.196 75.9302C349.39 77.1356 347.412 77.3453 345.342 76.7688C343.762 76.3233 342.713 74.9475 342.594 73.2179C342.487 71.5801 343.364 70.1781 345.049 69.4968C345.833 69.1823 346.696 68.9989 347.532 68.8547C348.687 68.6582 349.868 68.5665 351.037 68.4092C351.342 68.3699 351.687 68.2913 351.926 68.121C352.165 67.9637 352.43 67.6624 352.444 67.4003C352.47 66.8369 352.444 66.2342 352.284 65.6839C351.979 64.6487 351.116 64.1902 350.107 63.9936C349.138 63.8102 348.169 63.9281 347.213 64.1639C346.005 64.4653 345.342 65.2777 345.049 66.4307C345.01 66.6011 344.97 66.7714 344.917 66.9417C344.917 66.9548 344.89 66.981 344.837 67.0334H343.297C343.297 66.8107 343.271 66.6273 343.297 66.4307C343.695 64.2164 345.328 62.7751 347.744 62.4999C348.767 62.382 349.775 62.4213 350.784 62.6047C352.842 62.9847 354.103 64.3998 354.13 66.47C354.17 68.9726 354.143 71.4753 354.143 73.991C354.143 74.1744 354.143 74.3448 354.143 74.5282C354.249 75.3275 354.634 75.5895 355.444 75.4454C355.55 75.4192 355.656 75.4192 355.829 75.4061L355.855 75.4323ZM352.444 69.5492C352.444 69.5492 352.338 69.5099 352.311 69.523C350.864 70.0209 349.351 70.1257 347.837 70.2436C347.12 70.3091 346.377 70.5712 345.713 70.8856C344.704 71.3573 344.279 72.2352 344.412 73.2441C344.545 74.371 345.156 75.1047 346.271 75.3799C347.917 75.773 349.47 75.4847 350.891 74.6068C351.727 74.0827 352.338 73.3228 352.43 72.34C352.523 71.4098 352.444 70.4795 352.444 69.5361V69.5492Z" fill="#171717"/>
<path d="M136.788 70.2044C133.177 70.2568 129.619 70.3092 126.022 70.3616C125.929 71.5146 126.247 72.5235 126.739 73.48C128.079 76.0875 131.77 76.3364 133.589 74.7248C134.093 74.2793 134.478 73.7683 134.704 73.1394C134.77 72.9559 134.836 72.7725 134.929 72.5366H136.775C136.257 74.0303 135.62 75.3013 134.305 76.1923C132.115 77.6729 128.279 77.5812 126.301 75.773C125.703 75.2227 125.212 74.62 124.92 73.8862C123.845 71.1871 123.738 68.4879 125.066 65.828C126.871 62.2117 131.411 61.5304 134.093 63.4827C134.624 63.8757 135.102 64.3867 135.474 64.9371C136.39 66.2866 136.814 67.8066 136.854 69.4313C136.854 69.6671 136.814 69.903 136.801 70.1912L136.788 70.2044ZM134.876 68.7762C134.916 68.6582 134.956 68.5927 134.956 68.5272C134.983 65.5005 132.553 63.2992 129.274 64.1247C127.389 64.6095 125.955 67.0204 125.969 68.7631H134.876V68.7762Z" fill="#171717"/>
<path d="M217.103 70.2043C213.492 70.2568 209.934 70.3092 206.39 70.3616C206.085 72.7725 207.625 75.1572 209.934 75.6289C212.112 76.0744 214.262 75.3275 215.098 72.9035C215.138 72.7987 215.191 72.707 215.245 72.5628H217.103C216.851 73.1525 216.678 73.6504 216.426 74.109C215.404 76.0744 213.731 77.0702 211.527 77.2012C210.811 77.2405 210.067 77.2274 209.364 77.0833C206.855 76.5723 205.408 74.9606 204.77 72.5759C204.292 70.7678 204.279 68.9465 204.837 67.1514C205.501 65.0157 206.801 63.4171 209.018 62.7358C211.673 61.9103 214.674 62.7751 216.081 65.4087C216.864 66.8893 217.262 68.4355 217.09 70.2174L217.103 70.2043ZM215.404 68.8023C215.284 68.1472 215.231 67.5445 215.059 66.9811C214.382 64.7143 212.364 63.522 209.695 64.164C208.156 64.5309 207.253 65.6315 206.682 67.0335C206.456 67.5838 206.257 68.1472 206.297 68.8023H215.404Z" fill="#171717"/>
<path d="M321.858 69.6933C321.818 71.1608 321.553 72.5628 320.862 73.86C319.667 76.1267 317.743 77.2274 315.18 77.175C312.313 77.1225 310.096 75.524 309.22 72.9035C308.848 71.7897 308.676 70.6367 308.715 69.4706C308.755 68.1603 308.994 66.8893 309.592 65.7101C310.335 64.2164 311.477 63.155 313.123 62.6702C314.835 62.1723 316.535 62.2116 318.167 62.9454C319.973 63.7447 321.008 65.1991 321.446 67.0597C321.645 67.9244 321.725 68.8154 321.858 69.7064V69.6933ZM319.986 69.6933C320.013 68.6844 319.906 67.7148 319.561 66.7845C318.898 65.0025 317.623 64.0591 315.698 63.9019C313.654 63.7316 312.167 64.5439 311.264 66.3259C310.362 68.1079 310.375 69.9947 310.826 71.8815C311.264 73.7551 312.499 75.2489 314.822 75.5109C316.481 75.6943 318.194 74.9475 319.044 73.5324C319.76 72.34 320.039 71.056 319.986 69.6933Z" fill="#171717"/>
<path d="M374.972 62.3689C378.225 62.382 380.455 64.1771 381.158 67.3217C381.57 69.143 381.557 70.9512 380.986 72.7463C379.844 76.4019 376.247 77.8039 373.074 76.926C370.817 76.2971 369.45 74.8296 368.786 72.6676C368.175 70.6367 368.242 68.6058 368.879 66.6011C369.742 63.8888 371.959 62.3689 374.959 62.382L374.972 62.3689ZM379.711 69.392C379.672 69.0775 379.658 68.4486 379.539 67.8458C379.154 66.0115 378.304 64.5177 376.286 64.046C373.366 63.3647 371.295 64.7536 370.538 67.361C370.127 68.8023 370.087 70.2698 370.419 71.7373C370.83 73.5979 372.105 75.2882 374.441 75.5109C375.901 75.642 377.149 75.2882 378.132 74.2269C379.3 72.9559 379.698 71.3967 379.725 69.4051L379.711 69.392Z" fill="#171717"/>
<path d="M349.138 32.2588H352.55C352.71 32.7829 352.749 49.4758 352.603 50.3799H349.138V32.2588Z" fill="#171717"/>
<path d="M182.813 50.4061H179.322V32.272H182.813V50.4061Z" fill="#171717"/>
<path d="M256.756 76.7556H255.256C255.243 76.4805 255.203 76.2184 255.203 75.9564C255.203 73.1786 255.203 70.4139 255.203 67.6361C255.203 67.1775 255.15 66.6927 255.044 66.2473C254.699 64.8977 253.822 64.1508 252.415 64.0067C251.008 63.8626 249.72 64.1377 248.685 65.199C247.835 66.0638 247.464 67.1251 247.464 68.3044C247.464 70.8332 247.464 73.362 247.464 75.8909C247.464 76.1529 247.464 76.415 247.464 76.7294H245.884V57.4946H247.49V64.688C248.087 64.2163 248.565 63.8232 249.057 63.4302C250.782 62.0544 253.65 62.2509 255.336 63.5481C256.265 64.2687 256.836 65.2383 256.849 66.4307C256.876 69.6933 256.849 72.9558 256.849 76.2315C256.849 76.3888 256.809 76.5329 256.783 76.7556H256.756Z" fill="#171717"/>
<path d="M160.126 50.3929H156.595C156.422 49.8163 156.395 37.6177 156.568 36.9364H159.9V38.8887L160.046 38.928C160.736 37.9715 161.467 37.0543 162.688 36.7791C163.232 36.6612 163.79 36.4778 164.387 36.7529V40.2513C163.936 40.2513 163.484 40.2513 163.046 40.2513C162.037 40.2513 161.228 40.6444 160.644 41.4175C160.192 42.0333 160.099 42.7802 160.099 43.527C160.099 45.5449 160.099 47.5496 160.099 49.5674C160.099 49.8163 160.099 50.0522 160.099 50.3798L160.126 50.3929Z" fill="#171717"/>
<path d="M296.21 72.4057C296.847 72.4319 297.391 72.4581 297.962 72.4843C298.029 72.7333 298.082 72.9167 298.148 73.1133C298.613 74.6725 299.688 75.5373 301.321 75.7338C302.17 75.8386 302.994 75.7862 303.803 75.5242C305.064 75.118 305.808 73.9649 305.595 72.7988C305.503 72.2747 305.237 71.9078 304.786 71.6195C303.896 71.0299 302.861 70.8727 301.852 70.6237C300.87 70.3748 299.861 70.1651 298.918 69.8114C297.644 69.3397 296.781 68.4487 296.661 67.0467C296.529 65.6185 296.98 64.413 298.201 63.5221C299.17 62.8145 300.259 62.5132 301.454 62.5525C302.635 62.6049 303.817 62.7097 304.865 63.3255C306.233 64.1248 306.896 65.3564 307.056 66.955H305.449C305.41 66.8895 305.357 66.8108 305.343 66.7322C305.157 65.2123 304.202 64.3868 302.741 64.1117C301.693 63.9151 300.631 63.902 299.622 64.3999C298.852 64.7799 298.467 65.3826 298.414 66.2081C298.36 67.0205 298.745 67.597 299.476 68.0163C300.378 68.5273 301.361 68.7501 302.356 68.9859C303.485 69.248 304.6 69.51 305.622 70.0734C308.317 71.554 307.799 75 305.675 76.2186C304.255 77.0441 302.701 77.293 301.095 77.1489C299.927 77.0441 298.812 76.7558 297.909 75.9565C296.86 75.0394 296.329 73.8863 296.236 72.4188L296.21 72.4057Z" fill="#171717"/>
<path d="M283.559 72.4056C284.143 72.4318 284.674 72.4711 285.258 72.4973C285.324 72.7332 285.391 72.9297 285.444 73.1394C285.842 74.5676 286.957 75.5109 288.431 75.7075C289.506 75.8516 290.555 75.7992 291.537 75.3013C292.148 74.9999 292.586 74.5282 292.798 73.8731C293.117 72.8773 292.798 72.078 291.909 71.5146C291.059 70.9905 290.09 70.8595 289.148 70.6236C288.179 70.3878 287.21 70.165 286.267 69.8375C284.953 69.392 284.063 68.4879 283.917 67.0728C283.758 65.566 284.249 64.3081 285.59 63.4302C286.453 62.8668 287.395 62.6179 288.404 62.5786C289.546 62.5393 290.661 62.6572 291.723 63.1289C293.197 63.784 294.285 65.4219 294.206 66.9418H292.679C292.652 66.8763 292.599 66.8238 292.599 66.7583C292.36 65.0681 291.245 64.1902 289.413 64.033C288.603 63.9674 287.78 63.9675 287.01 64.3081C286.028 64.7536 285.616 65.4088 285.656 66.4832C285.683 67.0597 285.935 67.4921 286.413 67.8328C287.196 68.37 288.086 68.6058 288.988 68.8417C289.997 69.1037 291.006 69.3396 291.989 69.6802C292.493 69.8506 292.944 70.1781 293.396 70.4795C295.281 71.7505 295.068 74.9606 292.931 76.1661C290.781 77.3715 288.497 77.5812 286.201 76.6247C284.647 75.9826 283.811 74.6986 283.492 73.0869C283.466 72.9559 283.466 72.8249 283.479 72.6808C283.479 72.6152 283.506 72.5497 283.546 72.4056H283.559Z" fill="#171717"/>
<path d="M141.076 62.8799V64.6357C141.713 64.1378 142.257 63.6792 142.841 63.273C144.806 61.9103 148.112 62.3951 149.559 64.2557C150.076 64.9239 150.368 65.6839 150.368 66.5487C150.355 69.6802 150.368 72.8118 150.368 75.9433C150.368 76.1792 150.368 76.4281 150.368 76.7295H148.749C148.736 76.4805 148.696 76.2185 148.696 75.9695C148.696 73.1524 148.709 70.3354 148.669 67.5052C148.669 66.9155 148.483 66.3128 148.271 65.7625C147.859 64.7274 146.997 64.2033 145.935 64.046C143.041 63.6137 140.824 65.4873 140.824 68.3699C140.824 70.8726 140.824 73.3883 140.824 75.8909C140.824 76.153 140.824 76.415 140.824 76.7295H139.177V62.9323C139.762 62.7489 140.372 62.8275 141.089 62.8799H141.076Z" fill="#171717"/>
<path d="M383.747 76.7296V62.88H385.353C385.38 63.4565 385.406 64.0068 385.433 64.6882C385.685 64.4654 385.871 64.3082 386.044 64.1509C387.345 62.9193 388.858 62.2904 390.677 62.5524C392.641 62.8407 394.208 63.8889 394.633 65.8019C394.699 66.077 394.699 66.3784 394.699 66.6667C394.699 69.772 394.699 72.8905 394.699 75.9958C394.699 76.1923 394.673 76.3889 394.659 76.6247H393.066C393.066 76.3758 393.026 76.1268 393.026 75.8648C393.026 73.0477 393.026 70.2306 393.013 67.4135C393.013 66.8894 392.894 66.3522 392.748 65.8412C392.456 64.8323 391.725 64.2033 390.69 64.0068C388.088 63.4958 386.017 64.675 385.393 67.0728C385.207 67.8066 385.075 68.5666 385.353 69.3265C385.406 69.4706 385.406 69.641 385.406 69.7851C385.406 71.9078 385.406 74.0304 385.406 76.1661C385.406 76.3365 385.38 76.5199 385.353 76.7427H383.76L383.747 76.7296Z" fill="#171717"/>
<path d="M333.779 72.078H335.425C335.399 74.4758 333.168 76.8605 330.819 77.0833C329.81 77.175 328.827 77.175 327.858 76.9129C325.668 76.3233 324.327 74.8951 323.703 72.7856C323.066 70.6236 323.106 68.4486 323.942 66.339C324.739 64.3081 326.212 62.9454 328.403 62.4868C329.996 62.1593 331.589 62.3034 333.022 63.0896C334.576 63.9412 335.372 65.317 335.584 67.1645C334.921 67.2038 334.31 67.2431 333.673 67.2693C333.567 67.0335 333.487 66.8631 333.407 66.6797C332.69 65.0681 331.496 64.1116 329.65 64.0461C327.832 63.9805 326.504 64.7798 325.628 66.2997C324.964 67.4528 324.765 68.7499 324.792 70.0602C324.805 71.2263 325.017 72.3663 325.575 73.4276C326.345 74.882 327.566 75.5765 329.173 75.7075C331.283 75.8778 332.89 74.8296 333.553 72.8511C333.633 72.6152 333.699 72.3794 333.779 72.078Z" fill="#171717"/>
<path d="M189.212 36.9758V50.4192C188.004 50.4847 186.836 50.4585 185.601 50.4192V36.9758H189.212Z" fill="#171717"/>
<path d="M243.919 75.4322V76.8211C243.016 77.0176 242.167 77.319 241.237 77.07C240.295 76.8211 239.777 76.2184 239.578 75.3143C239.525 75.0522 239.525 74.7771 239.525 74.515C239.525 71.3572 239.525 68.1995 239.525 65.0548C239.525 64.8321 239.512 64.6093 239.498 64.3342C238.848 64.308 238.237 64.2687 237.573 64.2425V62.8536H239.591V59.0669H241.304V62.6701H243.892V64.059H241.37C241.344 64.3735 241.33 64.5962 241.33 64.8059C241.33 67.8719 241.33 70.938 241.33 74.004C241.33 74.135 241.33 74.2792 241.33 74.4102C241.383 75.1308 241.636 75.3929 242.392 75.4453C242.884 75.4715 243.375 75.4453 243.932 75.4453L243.919 75.4322Z" fill="#171717"/>
<path d="M158.44 75.511V76.8606C157.75 76.9654 157.059 77.1619 156.382 77.1488C155.041 77.1226 154.271 76.3889 154.072 75.0655C154.032 74.8296 154.019 74.5807 154.019 74.3317C154.019 71.2657 154.019 68.1997 154.019 65.1467C154.019 64.8847 153.993 64.6226 153.979 64.2819H152.134V62.88C152.718 62.8537 153.316 62.8275 154.006 62.7882V59.054H155.718V62.6441H158.307V64.0592H155.692C155.665 64.3344 155.639 64.5309 155.639 64.7274C155.639 67.8328 155.639 70.9381 155.639 74.0566C155.639 74.1221 155.639 74.1876 155.639 74.2531C155.665 75.0655 155.984 75.3931 156.78 75.4455C157.099 75.4717 157.418 75.4455 157.736 75.4586C157.949 75.4586 158.174 75.4979 158.427 75.5241L158.44 75.511Z" fill="#171717"/>
<path d="M362.427 75.5894V76.8211C361.498 77.0831 360.568 77.3452 359.586 77.0438C358.617 76.7425 358.219 76.0087 358.073 75.0784C358.046 74.8819 358.059 74.6722 358.059 74.4757C358.059 71.3835 358.059 68.3043 358.059 65.2121C358.059 64.95 358.059 64.6749 358.059 64.3342C357.396 64.308 356.785 64.2687 356.108 64.2425V62.8667H358.073V59.0669H359.692V62.657H362.281V64.059H359.785C359.759 64.3211 359.732 64.5176 359.732 64.7011C359.732 67.8326 359.732 70.9642 359.732 74.0957C359.732 75.1177 360.037 75.4191 361.06 75.4584C361.471 75.4715 361.869 75.4846 362.281 75.4977C362.321 75.4977 362.361 75.537 362.427 75.5894Z" fill="#171717"/>
<path d="M234.069 76.7294V57.4814H235.688V76.7294H234.069Z" fill="#171717"/>
<path d="M176.255 76.7425H174.702V57.4946H176.215C176.388 57.9532 176.428 75.904 176.255 76.7425Z" fill="#171717"/>
<path d="M366.051 76.7556H364.577C364.405 76.2708 364.338 64.1377 364.498 62.906H366.051V76.7556Z" fill="#171717"/>
<path d="M338.532 62.8798H340.072V76.6115C339.567 76.6639 339.089 76.7163 338.611 76.7687C338.425 76.2708 338.359 64.2032 338.532 62.8667V62.8798Z" fill="#171717"/>
<path d="M189.199 32.1409V35.3379C188.004 35.469 186.836 35.3903 185.601 35.3903V32.1409H189.199Z" fill="#171717"/>
<path d="M364.259 57.4814H366.064V59.8137H364.299C364.153 59.08 364.232 58.32 364.259 57.4814Z" fill="#171717"/>
<path d="M340.098 57.3635V59.6958H338.293V57.4028C338.89 57.2456 339.448 57.298 340.098 57.3635Z" fill="#171717"/>
</g>
<defs>
<clipPath id="clip0_39_432">
<rect width="396" height="100" fill="white"/>
</clipPath>
</defs>
</svg>
