<svg width="50" height="50" viewBox="0 0 50 50" fill="none" xmlns="http://www.w3.org/2000/svg">
<g clip-path="url(#clip0_39_1251)">
<path d="M41.9861 0H8.01389C3.59289 0 0 3.59289 0 8.01389V41.9861C0 46.4071 3.59289 50 8.01389 50H41.9861C46.4071 50 50 46.4071 50 41.9861V8.01389C50 3.59289 46.4071 0 41.9861 0ZM47.3287 41.9861C47.3287 44.9312 44.9312 47.3287 41.9861 47.3287H8.01389C5.06879 47.3287 2.6713 44.9312 2.6713 41.9861V8.01389C2.6713 5.06879 5.06879 2.6713 8.01389 2.6713H41.9861C44.9312 2.6713 47.3287 5.06879 47.3287 8.01389V41.9861Z" fill="white"/>
</g>
<g clip-path="url(#clip1_39_1251)">
<path d="M7.89819 36.8854V33.1256C7.89819 29.3924 10.97 26.3757 14.7515 26.3757C18.5419 26.3757 21.6048 29.4012 21.6048 33.1256V35.5054C21.6048 36.3989 20.8683 37.1243 19.9611 37.1243C19.0539 37.1243 18.3174 36.3989 18.3174 35.5054V29.9497C18.3174 26.2961 21.3263 23.3325 25.0359 23.3325C28.7455 23.3325 31.7545 26.2961 31.7545 29.9497V35.47C31.7545 36.3546 31.0269 37.0801 30.1197 37.0801C29.2215 37.0801 28.485 36.3635 28.485 35.47V33.1168C28.485 29.4189 31.5299 26.42 35.2844 26.42C39.0389 26.42 42.0838 29.4189 42.0838 33.1168V36.7704" stroke="white" stroke-width="2" stroke-miterlimit="10" stroke-linecap="round"/>
<path d="M35.2755 22.9874C37.23 22.9874 38.8144 21.4269 38.8144 19.5019C38.8144 17.5769 37.23 16.0164 35.2755 16.0164C33.321 16.0164 31.7366 17.5769 31.7366 19.5019C31.7366 21.4269 33.321 22.9874 35.2755 22.9874Z" stroke="white" stroke-width="2" stroke-miterlimit="10"/>
<path d="M25.0179 19.8558C26.9724 19.8558 28.5568 18.2953 28.5568 16.3703C28.5568 14.4453 26.9724 12.8848 25.0179 12.8848C23.0634 12.8848 21.479 14.4453 21.479 16.3703C21.479 18.2953 23.0634 19.8558 25.0179 19.8558Z" stroke="white" stroke-width="2" stroke-miterlimit="10"/>
<path d="M14.7157 22.9874C16.6702 22.9874 18.2546 21.4269 18.2546 19.5019C18.2546 17.5769 16.6702 16.0164 14.7157 16.0164C12.7612 16.0164 11.1768 17.5769 11.1768 19.5019C11.1768 21.4269 12.7612 22.9874 14.7157 22.9874Z" stroke="white" stroke-width="2" stroke-miterlimit="10"/>
</g>
<defs>
<clipPath id="clip0_39_1251">
<rect width="50" height="50" fill="white"/>
</clipPath>
<clipPath id="clip1_39_1251">
<rect width="36" height="26" fill="white" transform="translate(7 12)"/>
</clipPath>
</defs>
</svg>
