<svg width="50" height="50" viewBox="0 0 50 50" fill="none" xmlns="http://www.w3.org/2000/svg">
<g clip-path="url(#clip0_504_258)">
<path d="M41.9861 0H8.01389C3.59289 0 0 3.59289 0 8.01389V41.9861C0 46.4071 3.59289 50 8.01389 50H41.9861C46.4071 50 50 46.4071 50 41.9861V8.01389C50 3.59289 46.4071 0 41.9861 0ZM47.3287 41.9861C47.3287 44.9312 44.9312 47.3287 41.9861 47.3287H8.01389C5.06879 47.3287 2.6713 44.9312 2.6713 41.9861V8.01389C2.6713 5.06879 5.06879 2.6713 8.01389 2.6713H41.9861C44.9312 2.6713 47.3287 5.06879 47.3287 8.01389V41.9861Z" fill="white"/>
</g>
<path d="M35.1918 32.0585C30.298 32.3209 27.5592 34.0706 26.0327 35.7766V29.084C31.5551 28.6028 35.8653 24.0536 35.8653 18.5857C35.8653 12.768 31.0163 8 25 8C18.9837 8 14.1347 12.7242 14.1347 18.5857C14.1347 24.0973 18.4898 28.6465 24.0122 29.084V35.7766C22.4857 34.0706 19.7469 32.3647 14.898 32.0585C14.6735 32.0585 14.449 32.146 14.2694 32.2772C14.0898 32.4522 14 32.6709 14 32.8896C14 42.513 21.4531 42.513 25 42.513C28.5469 42.513 36 42.513 36 32.8896C36 32.6709 35.9102 32.4522 35.7306 32.2772C35.6857 32.146 35.4612 32.0585 35.1918 32.0585ZM24.102 40.8508C19.9714 40.7633 16.1102 39.8447 15.7959 33.8082C19.9714 34.2456 22.0816 35.8641 23.2041 37.3076C23.8327 38.1387 24.102 39.1448 24.102 40.1509V40.8508ZM25.0449 27.203C20.151 27.203 16.1551 23.3099 16.1551 18.542C16.1551 13.774 20.151 9.92468 25.0449 9.92468C29.9388 9.92468 33.9347 13.8178 33.9347 18.5857C33.9347 23.3537 29.9388 27.203 25.0449 27.203ZM26.0776 40.8508V40.1509C26.0776 39.1448 26.3918 38.1387 27.0204 37.3076C28.098 35.8641 30.2531 34.2456 34.4286 33.8082C34.0245 39.8009 30.2082 40.7633 26.0776 40.8508Z" fill="white"/>
<path d="M24.6858 15.2176H25.494C26.1226 15.2176 26.6164 15.655 26.7062 16.2236C26.7062 16.3549 26.8409 16.3986 26.9756 16.3986H28.4124C28.5471 16.3986 28.6817 16.2674 28.6817 16.1361C28.5471 14.7364 27.4695 13.5991 26.0328 13.3366V12.1118C26.0328 11.9806 25.8981 11.8494 25.7634 11.8494H24.3266C24.192 11.8494 24.0573 11.9806 24.0573 12.1118V13.3366C22.4409 13.5991 21.2287 15.0426 21.4083 16.7048C21.5879 18.3233 23.0695 19.5043 24.7307 19.5043H25.494C26.2573 19.5043 26.8409 20.1605 26.7062 20.9041C26.6164 21.4728 26.0328 21.9102 25.4042 21.9102H24.596C23.9675 21.9102 23.4736 21.4728 23.3838 20.9041C23.3838 20.7729 23.2491 20.7291 23.1144 20.7291H21.6777C21.543 20.7291 21.4083 20.8604 21.4083 20.9916C21.543 22.3914 22.6205 23.5287 24.0573 23.7911V25.0159C24.0573 25.1471 24.192 25.2784 24.3266 25.2784H25.7634C25.8981 25.2784 26.0328 25.1471 26.0328 25.0159V23.7911C27.4246 23.5287 28.5471 22.4351 28.6817 21.0791C28.8613 19.2419 27.3797 17.6671 25.494 17.6671H24.596C23.8328 17.6671 23.2491 17.011 23.3838 16.2674C23.5185 15.6112 24.0573 15.2176 24.6858 15.2176Z" fill="white"/>
<defs>
<clipPath id="clip0_504_258">
<rect width="50" height="50" fill="white"/>
</clipPath>
</defs>
</svg>
