<svg width="50" height="50" viewBox="0 0 50 50" fill="none" xmlns="http://www.w3.org/2000/svg">
<g clip-path="url(#clip0_39_1238)">
<path d="M41.9861 0H8.01389C3.59289 0 0 3.59289 0 8.01389V41.9861C0 46.4071 3.59289 50 8.01389 50H41.9861C46.4071 50 50 46.4071 50 41.9861V8.01389C50 3.59289 46.4071 0 41.9861 0ZM47.3287 41.9861C47.3287 44.9312 44.9312 47.3287 41.9861 47.3287H8.01389C5.06879 47.3287 2.6713 44.9312 2.6713 41.9861V8.01389C2.6713 5.06879 5.06879 2.6713 8.01389 2.6713H41.9861C44.9312 2.6713 47.3287 5.06879 47.3287 8.01389V41.9861Z" fill="white"/>
<path d="M8.75508 18.5321H13.7571C13.6569 18.1047 13.5968 17.6573 13.5968 17.1965C13.5968 16.7357 13.6569 16.2882 13.7571 15.8608H8.75508C8.02048 15.8608 7.41943 16.4619 7.41943 17.1965C7.41943 17.9311 8.02048 18.5321 8.75508 18.5321Z" fill="white"/>
<path d="M41.2449 18.5321C41.9795 18.5321 42.5806 17.9311 42.5806 17.1965C42.5806 16.4619 41.9795 15.8608 41.2449 15.8608H24.9834C25.0836 16.2882 25.1437 16.7357 25.1437 17.1965C25.1437 17.6573 25.0836 18.1047 24.9834 18.5321H41.2449Z" fill="white"/>
<path d="M19.3735 21.2302C21.1299 21.2302 22.6191 20.1015 23.1734 18.5321C23.3203 18.1114 23.4072 17.664 23.4072 17.1965C23.4072 16.729 23.3203 16.2816 23.1734 15.8609C22.6191 14.2915 21.1299 13.1628 19.3735 13.1628C17.6171 13.1628 16.1279 14.2915 15.5736 15.8609C15.4267 16.2816 15.3398 16.729 15.3398 17.1965C15.3398 17.664 15.4267 18.1114 15.5736 18.5321C16.1279 20.1015 17.6171 21.2302 19.3735 21.2302Z" fill="white"/>
<path d="M41.2449 31.4678H31.3945C31.4947 31.8952 31.5548 32.3426 31.5548 32.8034C31.5548 33.2642 31.4947 33.7117 31.3945 34.1391H41.2449C41.9795 34.1391 42.5806 33.538 42.5806 32.8034C42.5806 32.0688 41.9795 31.4678 41.2449 31.4678Z" fill="white"/>
<path d="M8.75508 31.4678C8.02048 31.4678 7.41943 32.0688 7.41943 32.8034C7.41943 33.538 8.02048 34.1391 8.75508 34.1391H20.1615C20.0613 33.7117 20.0012 33.2642 20.0012 32.8034C20.0012 32.3426 20.0613 31.8952 20.1615 31.4678H8.75508Z" fill="white"/>
<path d="M25.778 28.7698C24.0217 28.7698 22.5324 29.8984 21.9781 31.4678C21.8312 31.8885 21.7444 32.336 21.7444 32.8034C21.7444 33.2709 21.8312 33.7184 21.9781 34.1391C22.5324 35.7085 24.0217 36.8371 25.778 36.8371C27.5344 36.8371 29.0237 35.7085 29.578 34.1391C29.7249 33.7184 29.8117 33.2709 29.8117 32.8034C29.8117 32.336 29.7249 31.8885 29.578 31.4678C29.0237 29.8984 27.5344 28.7698 25.778 28.7698Z" fill="white"/>
</g>
<defs>
<clipPath id="clip0_39_1238">
<rect width="50" height="50" fill="white"/>
</clipPath>
</defs>
</svg>
