<svg width="233" height="50" viewBox="0 0 233 50" fill="none" xmlns="http://www.w3.org/2000/svg">
<g clip-path="url(#clip0_39_670)">
<path d="M72.2321 28.843L64.607 16.6382H61.7625V37.465H65.7911V25.0288L70.8268 33.1982H73.6135L78.6492 25.0696V37.465H82.6778V16.6382H79.8333L72.2321 28.843Z" fill="#171717"/>
<path d="M92.5315 32.2322L89.2855 23.1577H85.0187L90.4696 36.2336L87.033 43.481H91.1807L93.787 37.5844L100.187 23.1577H95.9204L92.5315 32.2322Z" fill="#171717"/>
<path d="M118.778 28.843L111.15 16.6382H108.306V37.465H112.334V25.0288L117.37 33.1982H120.157L125.192 25.0696V37.465H129.221V16.6382H126.376L118.778 28.843Z" fill="#171717"/>
<path d="M136.985 23.1577H133.045V37.4687H136.985V23.1577Z" fill="#171717"/>
<path d="M135.029 16.3999C134.396 16.3999 133.872 16.6177 133.46 17.0532C133.045 17.4887 132.838 18.0127 132.838 18.6251C132.838 19.2376 133.045 19.7854 133.46 20.2107C133.875 20.636 134.399 20.847 135.029 20.847C135.658 20.847 136.21 20.636 136.615 20.2107C137.019 19.7854 137.224 19.258 137.224 18.6251C137.224 17.9923 137.019 17.4887 136.615 17.0532C136.21 16.6177 135.682 16.3999 135.029 16.3999Z" fill="#171717"/>
<path d="M151.279 23.6439C150.459 23.1199 149.517 22.8579 148.448 22.8579C147.38 22.8579 146.39 23.0961 145.529 23.569C145.063 23.8242 144.655 24.1373 144.301 24.5013V23.1539H140.419V37.4649H144.301V29.258C144.301 28.7068 144.423 28.2067 144.672 27.7609C144.92 27.3152 145.26 26.975 145.692 26.7402C146.128 26.502 146.621 26.3829 147.173 26.3829C148.003 26.3829 148.683 26.6483 149.217 27.1825C149.752 27.7167 150.017 28.4074 150.017 29.258V37.4649H153.927V28.37C153.927 27.4207 153.688 26.5292 153.215 25.6888C152.742 24.8484 152.093 24.1679 151.276 23.6439H151.279Z" fill="#171717"/>
<path d="M167.145 24.3894C166.774 24.0423 166.352 23.7429 165.873 23.4979C165.043 23.0726 164.114 22.8617 163.086 22.8617C161.762 22.8617 160.582 23.1883 159.544 23.8382C158.506 24.4915 157.683 25.3795 157.07 26.5058C156.458 27.632 156.152 28.9045 156.152 30.3268C156.152 31.749 156.458 32.9944 157.07 34.1206C157.683 35.2468 158.506 36.1349 159.544 36.7882C160.582 37.4415 161.762 37.7647 163.086 37.7647C164.134 37.7647 165.07 37.5537 165.9 37.1284C166.383 36.88 166.805 36.5772 167.172 36.2233V37.4721H171.082V16.0532H167.142V24.3962L167.145 24.3894ZM165.662 33.6749C165.107 34.0117 164.478 34.1784 163.767 34.1784C163.055 34.1784 162.453 34.0151 161.899 33.6885C161.344 33.3618 160.915 32.9093 160.609 32.3241C160.303 31.7422 160.15 31.0651 160.15 30.2962C160.15 29.5272 160.303 28.8807 160.609 28.2955C160.915 27.7137 161.341 27.2577 161.882 26.9311C162.426 26.6044 163.062 26.4411 163.794 26.4411C164.525 26.4411 165.131 26.6078 165.675 26.9447C166.22 27.2815 166.642 27.7341 166.948 28.3091C167.254 28.8807 167.407 29.5544 167.407 30.3234C167.407 31.0924 167.254 31.7354 166.948 32.3071C166.642 32.8787 166.213 33.3346 165.658 33.6715L165.662 33.6749Z" fill="#171717"/>
<path d="M193.719 24.9335H184.682V16.6382H180.653V37.465H184.682V28.4892H193.719V37.465H197.748V16.6382H193.719V24.9335Z" fill="#171717"/>
<path d="M210.279 31.3646C210.279 32.2527 210.051 32.9468 209.599 33.4401C209.143 33.9335 208.513 34.1819 207.703 34.1819C207.169 34.1819 206.706 34.073 206.312 33.8552C205.917 33.6375 205.621 33.3176 205.424 32.8923C205.226 32.467 205.128 31.96 205.128 31.368V23.1611H201.218V31.4565C201.218 32.7018 201.494 33.7974 202.048 34.7433C202.6 35.6926 203.372 36.4276 204.359 36.9515C205.345 37.4755 206.461 37.7375 207.707 37.7375C208.952 37.7375 210.061 37.4755 211.041 36.9515C212.018 36.4276 212.783 35.6926 213.338 34.7433C213.889 33.794 214.168 32.6984 214.168 31.4565V23.1611H210.286V31.368L210.279 31.3646Z" fill="#171717"/>
<path d="M231.228 26.5057C230.636 25.3795 229.809 24.4914 228.755 23.8382C227.696 23.1849 226.509 22.8616 225.185 22.8616C224.178 22.8616 223.256 23.0726 222.416 23.4979C221.929 23.7429 221.501 24.0423 221.126 24.3928V16.0464H217.244V37.4652H221.096V36.1961C221.473 36.5636 221.905 36.8732 222.399 37.125C223.229 37.5503 224.158 37.7613 225.185 37.7613C226.509 37.7613 227.693 37.4346 228.741 36.7847C229.789 36.1315 230.612 35.2434 231.215 34.1172C231.817 32.9909 232.12 31.7286 232.12 30.3234C232.12 28.9181 231.824 27.6286 231.232 26.5023L231.228 26.5057ZM227.656 32.3104C227.349 32.882 226.931 33.338 226.397 33.6748C225.863 34.0117 225.24 34.1784 224.529 34.1784C223.818 34.1784 223.185 34.0117 222.634 33.6748C222.079 33.338 221.657 32.8854 221.361 32.3104C221.065 31.7388 220.915 31.0753 220.915 30.3268C220.915 29.5782 221.065 28.8841 221.361 28.3125C221.657 27.7408 222.076 27.2849 222.62 26.9481C223.164 26.6112 223.79 26.4445 224.502 26.4445C225.213 26.4445 225.839 26.6112 226.383 26.9481C226.928 27.2849 227.349 27.7442 227.656 28.3261C227.962 28.9079 228.115 29.5646 228.115 30.2961C228.115 31.0651 227.962 31.7388 227.656 32.3104Z" fill="#171717"/>
<path d="M25.0085 42.0042C15.6278 42.0042 7.99591 34.3723 7.99591 24.9916C7.99591 15.6109 15.6278 7.979 25.0085 7.979C34.3892 7.979 42.0211 15.6109 42.0211 24.9916C42.0211 34.3723 34.3892 42.0042 25.0085 42.0042ZM25.0085 11.3815C17.5025 11.3815 11.3984 17.4856 11.3984 24.9916C11.3984 32.4975 17.5025 38.6017 25.0085 38.6017C32.5145 38.6017 38.6186 32.4975 38.6186 24.9916C38.6186 17.4856 32.5145 11.3815 25.0085 11.3815Z" fill="#F28400"/>
<path d="M25.0085 35.3691C19.2854 35.3691 14.6308 30.7145 14.6308 24.9914C14.6308 19.2684 19.2854 14.6138 25.0085 14.6138C30.7315 14.6138 35.3862 19.2684 35.3862 24.9914C35.3862 30.7145 30.7315 35.3691 25.0085 35.3691ZM25.0085 18.0163C21.1636 18.0163 18.0333 21.1466 18.0333 24.9914C18.0333 28.8363 21.1636 31.9666 25.0085 31.9666C28.8533 31.9666 31.9836 28.8363 31.9836 24.9914C31.9836 21.1466 28.8533 18.0163 25.0085 18.0163Z" fill="#F46800"/>
<path d="M25.0085 50C24.066 50 23.1167 49.9456 22.1844 49.8435L22.8683 43.7564C24.049 43.8891 25.2637 43.9095 26.4376 43.8244L26.8935 49.932C26.2708 49.9796 25.638 50.0034 25.0085 50.0034V50ZM29.6223 49.5747L28.4995 43.5556C29.6666 43.3379 30.8166 43.0078 31.919 42.5723L34.1613 48.2715C32.6982 48.8465 31.1705 49.2855 29.6257 49.5747H29.6223ZM19.4658 49.3841C17.9313 49.0371 16.424 48.5403 14.9813 47.9109L17.4379 42.3001C18.5233 42.7765 19.6632 43.1507 20.8166 43.4127L19.4658 49.3841ZM36.6655 47.1215L33.8074 41.7047C34.8554 41.1501 35.8591 40.4934 36.788 39.7516L40.6125 44.5356C39.3841 45.5189 38.0572 46.3865 36.6689 47.1215H36.6655ZM12.5213 46.6621C11.1603 45.8762 9.8673 44.9575 8.67642 43.9299L12.6778 39.2923C13.5794 40.0681 14.556 40.7656 15.5835 41.3576L12.5213 46.6621ZM42.6642 42.7016L38.3396 38.3634C39.18 37.523 39.949 36.6009 40.6159 35.621L45.6754 39.0745C44.7907 40.3709 43.7768 41.5924 42.6642 42.7016ZM6.69616 42.0211C5.62436 40.871 4.65805 39.6121 3.82443 38.2817L9.00987 35.0221C9.64274 36.0259 10.3709 36.9786 11.1807 37.8496L6.69616 42.0211ZM47.1011 36.72L41.6945 33.8448C42.2525 32.7969 42.7118 31.6911 43.0589 30.558L48.9112 32.3579C48.4485 33.8619 47.8394 35.3283 47.1011 36.72ZM2.48724 35.8762C1.79993 34.4607 1.24872 32.9704 0.843825 31.4495L6.7608 29.8707C7.06703 31.0174 7.48214 32.1368 7.99932 33.2052L2.48724 35.8727V35.8762ZM49.5781 29.6836L43.5624 28.5403C43.7836 27.3801 43.8959 26.1858 43.8959 24.9915V24.9234H50.0204V24.9677C50.0204 26.5669 49.8741 28.1456 49.5815 29.6836H49.5781ZM0.282409 28.7513C0.0952705 27.5128 0 26.2504 0 24.9915C0 24.6751 0.00680504 24.362 0.0170126 24.049L6.13814 24.2736C6.12794 24.5117 6.12453 24.7499 6.12453 24.9915C6.12453 25.9442 6.19599 26.9037 6.33549 27.836L0.279006 28.7513H0.282409ZM43.7734 22.8513C43.6407 21.6706 43.3957 20.4968 43.0419 19.3671L48.8908 17.5468C49.3569 19.0473 49.6836 20.5988 49.8605 22.164L43.7734 22.8479V22.8513ZM6.32868 22.2014L0.268799 21.3066C0.50017 19.7482 0.87785 18.2069 1.39843 16.7234L7.17931 18.7479C6.78802 19.8639 6.50221 21.0276 6.32868 22.2014ZM42.3171 17.4243C41.8408 16.3389 41.2589 15.2909 40.5852 14.311L45.6346 10.8438C46.526 12.1402 47.2984 13.5284 47.9279 14.9677L42.3171 17.4243ZM7.9755 16.8255L2.45322 14.1749C3.13372 12.7594 3.95373 11.3984 4.88942 10.1327L9.81286 13.7734C9.10514 14.7295 8.48588 15.7571 7.9755 16.8255ZM39.3161 12.6642C38.5403 11.7625 37.6727 10.9323 36.7438 10.1939L40.5512 5.39639C41.7795 6.37292 42.9262 7.47193 43.9503 8.66281L39.3127 12.6642H39.3161ZM11.1398 12.1742L6.64512 8.01633C7.71351 6.86288 8.89418 5.8047 10.1565 4.87241L13.7972 9.79585C12.8411 10.5036 11.9496 11.3032 11.1398 12.1742ZM35.0459 8.98945C34.0388 8.35658 32.9704 7.81899 31.868 7.38687L34.0932 1.68084C35.5563 2.25247 36.9752 2.967 38.3089 3.80402L35.0493 8.98945H35.0459ZM15.5359 8.6526L12.4566 3.35829C13.8176 2.5655 15.2603 1.90201 16.7438 1.38482L18.7683 7.1657C17.6489 7.55699 16.5635 8.05716 15.5359 8.65601V8.6526ZM29.8911 6.74379C28.7479 6.43756 27.5672 6.24022 26.3797 6.15516L26.8152 0.0476353C28.3872 0.159918 29.9524 0.421912 31.4699 0.826812L29.8911 6.74379ZM20.7622 6.58387L19.391 0.615856C20.9187 0.265396 22.4906 0.0578428 24.066 0L24.294 6.12113C23.1031 6.16536 21.9156 6.32188 20.7622 6.58728V6.58387Z" fill="#F2A100"/>
</g>
<defs>
<clipPath id="clip0_39_670">
<rect width="232.116" height="50" fill="white"/>
</clipPath>
</defs>
</svg>
